<svg width="291" height="70" viewBox="0 0 291 70" fill="none" xmlns="http://www.w3.org/2000/svg">
<rect width="291" height="69.9302" fill="#030303"/>
<path fill-rule="evenodd" clip-rule="evenodd" d="M47.3708 48.5001C54.846 48.5001 60.9057 42.4403 60.9057 34.9652C60.9057 27.4901 54.846 21.4303 47.3708 21.4303C39.8957 21.4303 33.8359 27.4901 33.8359 34.9652C33.8359 42.4403 39.8957 48.5001 47.3708 48.5001ZM51.5933 27.7354C51.7988 27.0054 51.0903 26.5736 50.4433 27.0346L41.4108 33.4693C40.7091 33.9692 40.8195 34.9652 41.5766 34.9652H43.9551V34.9468H48.5907L44.8136 36.2795L43.1484 42.195C42.9429 42.925 43.6513 43.3567 44.2984 42.8957L53.3309 36.4611C54.0326 35.9612 53.9221 34.9652 53.1651 34.9652H49.5582L51.5933 27.7354Z" fill="#A8FF35"/>
<path d="M78.3739 27.5315V41.9652H76.4606V27.5315H78.3739ZM84.421 34.0247V35.591H77.9575V34.0247H84.421ZM85.4024 27.5315V29.0978H77.9575V27.5315H85.4024ZM89.3974 31.2391V41.9652H87.5536V31.2391H89.3974ZM87.4148 28.394C87.4148 28.0966 87.504 27.8454 87.6824 27.6406C87.8675 27.4357 88.1384 27.3333 88.4953 27.3333C88.8456 27.3333 89.1132 27.4357 89.2983 27.6406C89.4899 27.8454 89.5858 28.0966 89.5858 28.394C89.5858 28.6782 89.4899 28.9227 89.2983 29.1276C89.1132 29.3258 88.8456 29.425 88.4953 29.425C88.1384 29.425 87.8675 29.3258 87.6824 29.1276C87.504 28.9227 87.4148 28.6782 87.4148 28.394ZM94.1756 33.529V41.9652H92.3417V31.2391H94.0765L94.1756 33.529ZM93.7394 36.1957L92.9761 36.166C92.9827 35.4324 93.0918 34.755 93.3032 34.1337C93.5147 33.5059 93.8121 32.9607 94.1954 32.4981C94.5787 32.0354 95.0348 31.6786 95.5635 31.4274C96.0988 31.1697 96.6903 31.0408 97.3379 31.0408C97.8666 31.0408 98.3425 31.1135 98.7654 31.2589C99.1884 31.3977 99.5486 31.6224 99.846 31.933C100.15 32.2436 100.381 32.6468 100.54 33.1424C100.699 33.6315 100.778 34.2296 100.778 34.9367V41.9652H98.934V34.9169C98.934 34.3551 98.8514 33.9057 98.6861 33.5687C98.5209 33.225 98.2797 32.9772 97.9625 32.8252C97.6452 32.6666 97.2553 32.5873 96.7927 32.5873C96.3367 32.5873 95.9203 32.6831 95.5436 32.8748C95.1735 33.0664 94.853 33.3308 94.5821 33.6678C94.3177 34.0049 94.1095 34.3915 93.9575 34.8277C93.8121 35.2572 93.7394 35.7133 93.7394 36.1957ZM110.324 39.8834V26.7385H112.168V41.9652H110.483L110.324 39.8834ZM103.107 36.7211V36.5129C103.107 35.6934 103.207 34.9499 103.405 34.2824C103.61 33.6083 103.897 33.0301 104.267 32.5476C104.644 32.0652 105.09 31.6951 105.606 31.4373C106.128 31.173 106.709 31.0408 107.35 31.0408C108.024 31.0408 108.613 31.1598 109.115 31.3977C109.624 31.629 110.053 31.9694 110.404 32.4188C110.76 32.8615 111.041 33.3969 111.246 34.0247C111.451 34.6525 111.593 35.363 111.672 36.156V37.0681C111.6 37.8545 111.458 38.5617 111.246 39.1895C111.041 39.8173 110.76 40.3527 110.404 40.7954C110.053 41.2382 109.624 41.5786 109.115 41.8165C108.606 42.0478 108.011 42.1635 107.33 42.1635C106.703 42.1635 106.128 42.028 105.606 41.757C105.09 41.4861 104.644 41.1061 104.267 40.617C103.897 40.128 103.61 39.553 103.405 38.8921C103.207 38.2246 103.107 37.5009 103.107 36.7211ZM104.951 36.5129V36.7211C104.951 37.2564 105.004 37.7587 105.11 38.2279C105.222 38.6971 105.394 39.1102 105.625 39.4671C105.857 39.8239 106.151 40.1048 106.508 40.3097C106.865 40.508 107.291 40.6071 107.786 40.6071C108.395 40.6071 108.893 40.4782 109.283 40.2205C109.68 39.9627 109.997 39.6224 110.235 39.1994C110.473 38.7764 110.658 38.3171 110.79 37.8215V35.4324C110.711 35.0689 110.595 34.7186 110.443 34.3816C110.298 34.0379 110.106 33.7339 109.868 33.4696C109.637 33.1986 109.349 32.9838 109.006 32.8252C108.669 32.6666 108.269 32.5873 107.806 32.5873C107.304 32.5873 106.871 32.693 106.508 32.9045C106.151 33.1094 105.857 33.3936 105.625 33.757C105.394 34.1139 105.222 34.5303 105.11 35.0061C105.004 35.4753 104.951 35.9776 104.951 36.5129ZM119.514 31.2391V32.6468H113.715V31.2391H119.514ZM115.677 28.6319H117.511V39.3085C117.511 39.6719 117.568 39.9462 117.68 40.1313C117.792 40.3163 117.938 40.4386 118.116 40.498C118.295 40.5575 118.486 40.5873 118.691 40.5873C118.843 40.5873 119.002 40.5741 119.167 40.5476C119.339 40.5146 119.468 40.4881 119.554 40.4683L119.563 41.9652C119.418 42.0115 119.226 42.0544 118.988 42.0941C118.757 42.1403 118.476 42.1635 118.146 42.1635C117.696 42.1635 117.283 42.0743 116.907 41.8958C116.53 41.7174 116.229 41.42 116.005 41.0036C115.786 40.5807 115.677 40.0123 115.677 39.2985V28.6319ZM123.499 32.9243V41.9652H121.665V31.2391H123.449L123.499 32.9243ZM126.85 31.1796L126.84 32.8847C126.688 32.8516 126.542 32.8318 126.404 32.8252C126.271 32.812 126.119 32.8054 125.948 32.8054C125.525 32.8054 125.151 32.8715 124.827 33.0036C124.504 33.1358 124.229 33.3209 124.005 33.5588C123.78 33.7967 123.601 34.0809 123.469 34.4113C123.344 34.7352 123.261 35.092 123.221 35.4819L122.706 35.7793C122.706 35.1317 122.769 34.5237 122.894 33.9553C123.026 33.3869 123.228 32.8847 123.499 32.4485C123.77 32.0057 124.114 31.662 124.53 31.4175C124.953 31.1664 125.455 31.0408 126.037 31.0408C126.169 31.0408 126.321 31.0573 126.493 31.0904C126.665 31.1168 126.784 31.1466 126.85 31.1796ZM132.798 42.1635C132.051 42.1635 131.373 42.0379 130.765 41.7868C130.164 41.529 129.645 41.1688 129.209 40.7062C128.779 40.2436 128.449 39.6951 128.218 39.0606C127.986 38.4262 127.871 37.7323 127.871 36.9788V36.5625C127.871 35.6901 128 34.9136 128.257 34.2329C128.515 33.5456 128.865 32.964 129.308 32.4881C129.751 32.0123 130.253 31.6521 130.815 31.4076C131.377 31.1631 131.958 31.0408 132.56 31.0408C133.326 31.0408 133.987 31.173 134.542 31.4373C135.104 31.7017 135.563 32.0718 135.92 32.5476C136.277 33.0169 136.542 33.572 136.713 34.2131C136.885 34.8475 136.971 35.5414 136.971 36.2948V37.1176H128.961V35.6207H135.137V35.4819C135.111 35.0061 135.012 34.5435 134.84 34.0941C134.675 33.6447 134.41 33.2746 134.047 32.9838C133.683 32.693 133.188 32.5476 132.56 32.5476C132.143 32.5476 131.76 32.6368 131.41 32.8153C131.059 32.9871 130.759 33.2449 130.508 33.5885C130.257 33.9322 130.062 34.3518 129.923 34.8475C129.784 35.3432 129.715 35.9148 129.715 36.5625V36.9788C129.715 37.4877 129.784 37.9669 129.923 38.4163C130.068 38.8591 130.276 39.249 130.547 39.586C130.825 39.9231 131.159 40.1874 131.549 40.3791C131.945 40.5707 132.394 40.6666 132.897 40.6666C133.544 40.6666 134.093 40.5344 134.542 40.27C134.992 40.0057 135.385 39.6521 135.722 39.2093L136.832 40.0916C136.601 40.4419 136.307 40.7756 135.95 41.0928C135.593 41.4101 135.154 41.6678 134.632 41.8661C134.116 42.0643 133.505 42.1635 132.798 42.1635ZM140.946 33.529V41.9652H139.112V31.2391H140.847L140.946 33.529ZM140.51 36.1957L139.747 36.166C139.753 35.4324 139.862 34.755 140.074 34.1337C140.285 33.5059 140.583 32.9607 140.966 32.4981C141.349 32.0354 141.805 31.6786 142.334 31.4274C142.869 31.1697 143.461 31.0408 144.109 31.0408C144.637 31.0408 145.113 31.1135 145.536 31.2589C145.959 31.3977 146.319 31.6224 146.617 31.933C146.921 32.2436 147.152 32.6468 147.311 33.1424C147.469 33.6315 147.549 34.2296 147.549 34.9367V41.9652H145.705V34.9169C145.705 34.3551 145.622 33.9057 145.457 33.5687C145.292 33.225 145.05 32.9772 144.733 32.8252C144.416 32.6666 144.026 32.5873 143.563 32.5873C143.107 32.5873 142.691 32.6831 142.314 32.8748C141.944 33.0664 141.624 33.3308 141.353 33.6678C141.088 34.0049 140.88 34.3915 140.728 34.8277C140.583 35.2572 140.51 35.7133 140.51 36.1957ZM157.095 39.8834V26.7385H158.939V41.9652H157.254L157.095 39.8834ZM149.878 36.7211V36.5129C149.878 35.6934 149.977 34.9499 150.176 34.2824C150.38 33.6083 150.668 33.0301 151.038 32.5476C151.415 32.0652 151.861 31.6951 152.376 31.4373C152.898 31.173 153.48 31.0408 154.121 31.0408C154.795 31.0408 155.383 31.1598 155.886 31.3977C156.394 31.629 156.824 31.9694 157.174 32.4188C157.531 32.8615 157.812 33.3969 158.017 34.0247C158.222 34.6525 158.364 35.363 158.443 36.156V37.0681C158.37 37.8545 158.228 38.5617 158.017 39.1895C157.812 39.8173 157.531 40.3527 157.174 40.7954C156.824 41.2382 156.394 41.5786 155.886 41.8165C155.377 42.0478 154.782 42.1635 154.101 42.1635C153.473 42.1635 152.898 42.028 152.376 41.757C151.861 41.4861 151.415 41.1061 151.038 40.617C150.668 40.128 150.38 39.553 150.176 38.8921C149.977 38.2246 149.878 37.5009 149.878 36.7211ZM151.722 36.5129V36.7211C151.722 37.2564 151.775 37.7587 151.881 38.2279C151.993 38.6971 152.165 39.1102 152.396 39.4671C152.627 39.8239 152.921 40.1048 153.278 40.3097C153.635 40.508 154.062 40.6071 154.557 40.6071C155.165 40.6071 155.664 40.4782 156.054 40.2205C156.451 39.9627 156.768 39.6224 157.006 39.1994C157.244 38.7764 157.429 38.3171 157.561 37.8215V35.4324C157.482 35.0689 157.366 34.7186 157.214 34.3816C157.069 34.0379 156.877 33.7339 156.639 33.4696C156.408 33.1986 156.12 32.9838 155.777 32.8252C155.439 32.6666 155.04 32.5873 154.577 32.5873C154.075 32.5873 153.642 32.693 153.278 32.9045C152.921 33.1094 152.627 33.3936 152.396 33.757C152.165 34.1139 151.993 34.5303 151.881 35.0061C151.775 35.4753 151.722 35.9776 151.722 36.5129ZM170.646 35.0755V36.5823H165.809V35.0755H170.646ZM186.924 40.4088V41.9652H179.281V40.4088H186.924ZM179.667 27.5315V41.9652H177.754V27.5315H179.667ZM185.913 33.7372V35.2936H179.281V33.7372H185.913ZM186.825 27.5315V29.0978H179.281V27.5315H186.825ZM191.008 26.7385V41.9652H189.164V26.7385H191.008ZM193.467 36.7211V36.4931C193.467 35.7199 193.579 35.0028 193.804 34.3419C194.028 33.6744 194.352 33.0962 194.775 32.6071C195.198 32.1114 195.71 31.7281 196.312 31.4572C196.913 31.1796 197.587 31.0408 198.334 31.0408C199.087 31.0408 199.765 31.1796 200.366 31.4572C200.974 31.7281 201.49 32.1114 201.913 32.6071C202.342 33.0962 202.669 33.6744 202.894 34.3419C203.119 35.0028 203.231 35.7199 203.231 36.4931V36.7211C203.231 37.4943 203.119 38.2114 202.894 38.8723C202.669 39.5332 202.342 40.1114 201.913 40.6071C201.49 41.0961 200.978 41.4795 200.376 41.757C199.781 42.028 199.107 42.1635 198.354 42.1635C197.6 42.1635 196.923 42.028 196.322 41.757C195.72 41.4795 195.205 41.0961 194.775 40.6071C194.352 40.1114 194.028 39.5332 193.804 38.8723C193.579 38.2114 193.467 37.4943 193.467 36.7211ZM195.301 36.4931V36.7211C195.301 37.2564 195.363 37.762 195.489 38.2378C195.615 38.7071 195.803 39.1234 196.054 39.4869C196.312 39.8504 196.632 40.1379 197.016 40.3494C197.399 40.5542 197.845 40.6567 198.354 40.6567C198.856 40.6567 199.296 40.5542 199.672 40.3494C200.056 40.1379 200.373 39.8504 200.624 39.4869C200.875 39.1234 201.064 38.7071 201.189 38.2378C201.321 37.762 201.387 37.2564 201.387 36.7211V36.4931C201.387 35.9644 201.321 35.4654 201.189 34.9962C201.064 34.5204 200.872 34.1007 200.614 33.7372C200.363 33.3671 200.046 33.0763 199.662 32.8649C199.286 32.6534 198.843 32.5476 198.334 32.5476C197.832 32.5476 197.389 32.6534 197.006 32.8649C196.629 33.0763 196.312 33.3671 196.054 33.7372C195.803 34.1007 195.615 34.5204 195.489 34.9962C195.363 35.4654 195.301 35.9644 195.301 36.4931ZM207.365 33.529V41.9652H205.531V31.2391H207.266L207.365 33.529ZM206.929 36.1957L206.166 36.166C206.172 35.4324 206.281 34.755 206.493 34.1337C206.704 33.5059 207.002 32.9607 207.385 32.4981C207.768 32.0354 208.224 31.6786 208.753 31.4274C209.288 31.1697 209.88 31.0408 210.527 31.0408C211.056 31.0408 211.532 31.1135 211.955 31.2589C212.378 31.3977 212.738 31.6224 213.035 31.933C213.339 32.2436 213.571 32.6468 213.729 33.1424C213.888 33.6315 213.967 34.2296 213.967 34.9367V41.9652H212.123V34.9169C212.123 34.3551 212.041 33.9057 211.876 33.5687C211.71 33.225 211.469 32.9772 211.152 32.8252C210.835 32.6666 210.445 32.5873 209.982 32.5873C209.526 32.5873 209.11 32.6831 208.733 32.8748C208.363 33.0664 208.042 33.3308 207.771 33.6678C207.507 34.0049 207.299 34.3915 207.147 34.8277C207.002 35.2572 206.929 35.7133 206.929 36.1957ZM222.671 27.5315H224.525L229.253 39.2985L233.972 27.5315H235.836L229.967 41.9652H228.52L222.671 27.5315ZM222.066 27.5315H223.702L223.97 36.3345V41.9652H222.066V27.5315ZM234.795 27.5315H236.431V41.9652H234.527V36.3345L234.795 27.5315ZM246.076 39.4869V31.2391H247.92V41.9652H246.165L246.076 39.4869ZM246.423 37.2267L247.187 37.2069C247.187 37.9206 247.111 38.5815 246.959 39.1895C246.813 39.7909 246.575 40.313 246.245 40.7558C245.914 41.1986 245.481 41.5455 244.946 41.7967C244.411 42.0412 243.76 42.1635 242.993 42.1635C242.471 42.1635 241.992 42.0875 241.556 41.9355C241.126 41.7835 240.756 41.5489 240.446 41.2316C240.135 40.9144 239.894 40.5014 239.722 39.9925C239.557 39.4836 239.474 38.8723 239.474 38.1585V31.2391H241.308V38.1784C241.308 38.6608 241.361 39.0606 241.467 39.3779C241.579 39.6885 241.728 39.9363 241.913 40.1213C242.104 40.2998 242.316 40.4254 242.547 40.498C242.785 40.5707 243.03 40.6071 243.281 40.6071C244.061 40.6071 244.678 40.4584 245.134 40.161C245.59 39.857 245.918 39.4506 246.116 38.9417C246.321 38.4262 246.423 37.8545 246.423 37.2267ZM256.961 39.1201C256.961 38.8558 256.902 38.6112 256.783 38.3865C256.67 38.1552 256.436 37.947 256.079 37.762C255.728 37.5703 255.2 37.4051 254.493 37.2663C253.898 37.1408 253.359 36.9921 252.877 36.8202C252.401 36.6484 251.994 36.4402 251.657 36.1957C251.327 35.9512 251.073 35.6637 250.894 35.3332C250.716 35.0028 250.626 34.6162 250.626 34.1734C250.626 33.7504 250.719 33.3506 250.904 32.9739C251.096 32.5972 251.363 32.2634 251.707 31.9727C252.057 31.6819 252.477 31.4539 252.966 31.2886C253.455 31.1234 254 31.0408 254.602 31.0408C255.461 31.0408 256.194 31.1928 256.802 31.4968C257.41 31.8008 257.876 32.2073 258.2 32.7162C258.524 33.2184 258.686 33.7769 258.686 34.3915H256.852C256.852 34.0941 256.763 33.8066 256.584 33.529C256.412 33.2449 256.158 33.0102 255.821 32.8252C255.491 32.6402 255.084 32.5476 254.602 32.5476C254.093 32.5476 253.68 32.6269 253.362 32.7855C253.052 32.9375 252.824 33.1325 252.678 33.3704C252.54 33.6083 252.47 33.8595 252.47 34.1238C252.47 34.3221 252.503 34.5005 252.569 34.6591C252.642 34.8112 252.768 34.9532 252.946 35.0854C253.125 35.211 253.376 35.3299 253.7 35.4423C254.023 35.5546 254.436 35.667 254.939 35.7793C255.818 35.9776 256.541 36.2155 257.11 36.4931C257.678 36.7707 258.101 37.111 258.379 37.5142C258.656 37.9173 258.795 38.4064 258.795 38.9813C258.795 39.4506 258.696 39.8801 258.498 40.27C258.306 40.66 258.025 40.997 257.655 41.2812C257.291 41.5588 256.855 41.7769 256.346 41.9355C255.844 42.0875 255.279 42.1635 254.651 42.1635C253.706 42.1635 252.906 41.9949 252.252 41.6579C251.598 41.3208 251.102 40.8847 250.765 40.3494C250.428 39.814 250.26 39.249 250.26 38.6542H252.103C252.13 39.1565 252.275 39.5563 252.54 39.8537C252.804 40.1445 253.128 40.3527 253.511 40.4782C253.894 40.5972 254.274 40.6567 254.651 40.6567C255.153 40.6567 255.573 40.5906 255.91 40.4584C256.254 40.3262 256.515 40.1445 256.693 39.9132C256.872 39.6819 256.961 39.4175 256.961 39.1201ZM263.048 26.7385V41.9652H261.204V26.7385H263.048ZM269.6 31.2391L264.921 36.2453L262.304 38.9615L262.156 37.0086L264.029 34.7682L267.36 31.2391H269.6ZM267.925 41.9652L264.099 36.85L265.05 35.2143L270.086 41.9652H267.925Z" fill="white"/>
<rect x="218.812" width="72.1861" height="69.9302" fill="url(#paint0_linear_2_402)"/>
<rect width="2.25189" height="16.8892" rx="0.563953" transform="matrix(0.707101 -0.707112 0.707101 0.707112 259.418 29.7899)" fill="white"/>
<rect width="2.25189" height="16.8892" rx="0.563953" transform="matrix(-0.707101 -0.707112 -0.707101 0.707112 272.953 29.7899)" fill="white"/>
<defs>
<linearGradient id="paint0_linear_2_402" x1="290.999" y1="34.9651" x2="218.812" y2="34.9651" gradientUnits="userSpaceOnUse">
<stop offset="0.536458" stop-color="#030303"/>
<stop offset="1" stop-color="#030303" stop-opacity="0.6"/>
</linearGradient>
</defs>
</svg>
